<svg width="424" height="421" viewBox="0 0 424 421" fill="none" xmlns="http://www.w3.org/2000/svg">
<path d="M180.759 84.7935L178.157 85.4908L181.516 98.0296L184.119 97.3323L180.759 84.7935Z" fill="#F2ECD9"/>
<path d="M174.744 62.1866L172.142 62.8839L178.164 85.3591L180.766 84.6618L174.744 62.1866Z" fill="#F2ECD9"/>
<path d="M166.632 32.1206L164.03 32.8181L167.264 44.8838L169.866 44.1862L166.632 32.1206Z" fill="#F2ECD9"/>
<path d="M158.23 0.895132L155.628 1.59241L160.445 19.5726L163.048 18.8753L158.23 0.895132Z" fill="#F2ECD9"/>
<path d="M159.143 90.6354L156.701 91.7742L162.81 104.87L165.251 103.731L159.143 90.6354Z" fill="#F2ECD9"/>
<path d="M142.778 55.9386L140.336 57.0778L148.932 75.5003L151.373 74.3612L142.778 55.9386Z" fill="#F2ECD9"/>
<path d="M122.928 13.4549L120.486 14.5933L130.007 35.0157L132.448 33.8774L122.928 13.4549Z" fill="#F2ECD9"/>
<path d="M138.191 99.8167L135.985 101.363L145.682 115.204L147.889 113.658L138.191 99.8167Z" fill="#F2ECD9"/>
<path d="M105.5 53.1083L103.292 54.6537L118.044 75.7219L120.251 74.1765L105.5 53.1083Z" fill="#F2ECD9"/>
<path d="M90.5465 31.928L88.3394 33.4732L95.7842 44.1076L97.9914 42.5625L90.5465 31.928Z" fill="#F2ECD9"/>
<path d="M115.7 109.623L113.795 111.529L130.595 128.328L132.5 126.423L115.7 109.623Z" fill="#F2ECD9"/>
<path d="M82.1685 76.3687L80.2634 78.2738L96.3703 94.3807L98.2754 92.4756L82.1685 76.3687Z" fill="#F2ECD9"/>
<path d="M61.8768 55.7898L59.9717 57.6949L80.4084 78.1316L82.3135 76.2265L61.8768 55.7898Z" fill="#F2ECD9"/>
<path d="M37.563 84.4087L36.0176 86.6155L47.6538 94.7642L49.1993 92.5573L37.563 84.4087Z" fill="#F2ECD9"/>
<path d="M60.2635 100.158L58.7178 102.364L84.799 120.632L86.3447 118.425L60.2635 100.158Z" fill="#F2ECD9"/>
<path d="M109.187 134.428L107.642 136.635L117.672 143.661L119.217 141.454L109.187 134.428Z" fill="#F2ECD9"/>
<path d="M102.754 155.721L101.615 158.163L108.051 161.166L109.19 158.725L102.754 155.721Z" fill="#F2ECD9"/>
<path d="M57.9179 134.933L56.7788 137.375L88.5189 152.184L89.658 149.742L57.9179 134.933Z" fill="#F2ECD9"/>
<path d="M18.626 116.676L17.4874 119.118L29.2525 124.604L30.3911 122.162L18.626 116.676Z" fill="#F2ECD9"/>
<path d="M149.967 97.3076L147.633 98.6547L154.124 109.897L156.457 108.55L149.967 97.3076Z" fill="#F2ECD9"/>
<path d="M138.229 76.9406L135.896 78.2877L147.53 98.4384L149.863 97.0913L138.229 76.9406Z" fill="#F2ECD9"/>
<path d="M122.638 50.0153L120.305 51.3624L126.551 62.1802L128.884 60.833L122.638 50.0153Z" fill="#F2ECD9"/>
<path d="M106.404 22.0559L104.071 23.403L113.379 39.5235L115.712 38.1764L106.404 22.0559Z" fill="#F2ECD9"/>
<path d="M130.42 108.542L128.357 110.274L137.648 121.342L139.711 119.61L130.42 108.542Z" fill="#F2ECD9"/>
<path d="M105.748 79.0602L103.685 80.7924L116.755 96.3627L118.818 94.6306L105.748 79.0602Z" fill="#F2ECD9"/>
<path d="M75.7296 43.2928L73.6655 45.0244L88.148 62.2876L90.2121 60.556L75.7296 43.2928Z" fill="#F2ECD9"/>
<path d="M112.628 122.836L110.896 124.9L123.846 135.76L125.577 133.696L112.628 122.836Z" fill="#F2ECD9"/>
<path d="M68.8669 86.347L67.135 88.4108L86.835 104.942L88.5669 102.879L68.8669 86.347Z" fill="#F2ECD9"/>
<path d="M49.1256 69.4613L47.3932 71.5248L57.3357 79.8719L59.0681 77.8084L49.1256 69.4613Z" fill="#F2ECD9"/>
<path d="M93.4262 138.023L92.0791 140.356L112.654 152.236L114.001 149.902L93.4262 138.023Z" fill="#F2ECD9"/>
<path d="M52.3765 114.589L51.0291 116.922L70.7555 128.314L72.1029 125.981L52.3765 114.589Z" fill="#F2ECD9"/>
<path d="M27.4402 100.003L26.093 102.336L51.1223 116.788L52.4694 114.454L27.4402 100.003Z" fill="#F2ECD9"/>
<path d="M11.4057 133.882L10.484 136.414L23.8335 141.274L24.7552 138.742L11.4057 133.882Z" fill="#F2ECD9"/>
<path d="M37.5445 143.269L36.6228 145.801L66.5441 156.694L67.4658 154.162L37.5445 143.269Z" fill="#F2ECD9"/>
<path d="M93.4449 163.789L92.5229 166.321L104.03 170.511L104.952 167.98L93.4449 163.789Z" fill="#F2ECD9"/>
<path d="M92.812 185.935L92.3435 188.588L99.3386 189.823L99.8072 187.17L92.812 185.935Z" fill="#F2ECD9"/>
<path d="M44.1018 177.354L43.6335 180.007L78.1266 186.094L78.5949 183.441L44.1018 177.354Z" fill="#F2ECD9"/>
<path d="M1.40071 169.791L0.932983 172.444L13.7171 174.698L14.1848 172.044L1.40071 169.791Z" fill="#F2ECD9"/>
<path d="M101.357 236.865L88.8179 240.226L89.5154 242.828L102.054 239.468L101.357 236.865Z" fill="#F2ECD9"/>
<path d="M88.6778 240.221L66.2026 246.245L66.9002 248.847L89.3754 242.823L88.6778 240.221Z" fill="#F2ECD9"/>
<path d="M48.2097 251.123L36.144 254.356L36.8413 256.959L48.907 253.726L48.2097 251.123Z" fill="#F2ECD9"/>
<path d="M22.8874 257.937L4.90723 262.755L5.6045 265.357L23.5847 260.539L22.8874 257.937Z" fill="#F2ECD9"/>
<path d="M107.747 255.726L94.6514 261.836L95.7905 264.277L108.886 258.167L107.747 255.726Z" fill="#F2ECD9"/>
<path d="M78.3986 269.62L59.9761 278.217L61.1155 280.659L79.5381 272.061L78.3986 269.62Z" fill="#F2ECD9"/>
<path d="M37.892 288.542L17.4673 298.06L18.6053 300.502L39.03 290.984L37.892 288.542Z" fill="#F2ECD9"/>
<path d="M117.698 273.09L103.855 282.784L105.4 284.991L119.243 275.296L117.698 273.09Z" fill="#F2ECD9"/>
<path d="M78.2018 300.756L57.1284 315.497L58.6728 317.705L79.7461 302.963L78.2018 300.756Z" fill="#F2ECD9"/>
<path d="M46.583 322.994L35.9473 330.437L37.4919 332.644L48.1276 325.202L46.583 322.994Z" fill="#F2ECD9"/>
<path d="M130.469 288.481L113.669 305.281L115.574 307.186L132.374 290.386L130.469 288.481Z" fill="#F2ECD9"/>
<path d="M96.5153 322.706L80.4084 338.813L82.3135 340.718L98.4204 324.611L96.5153 322.706Z" fill="#F2ECD9"/>
<path d="M80.2878 338.679L59.8511 359.118L61.7565 361.023L82.1932 340.584L80.2878 338.679Z" fill="#F2ECD9"/>
<path d="M96.5821 371.78L88.4377 383.419L90.6452 384.964L98.7896 373.325L96.5821 371.78Z" fill="#F2ECD9"/>
<path d="M122.446 334.621L104.191 360.709L106.399 362.254L124.653 336.166L122.446 334.621Z" fill="#F2ECD9"/>
<path d="M145.493 301.752L138.469 311.785L140.677 313.33L147.7 303.297L145.493 301.752Z" fill="#F2ECD9"/>
<path d="M162.781 311.778L159.777 318.215L162.219 319.354L165.223 312.917L162.781 311.778Z" fill="#F2ECD9"/>
<path d="M153.795 331.312L138.983 363.052L141.424 364.192L156.236 332.452L153.795 331.312Z" fill="#F2ECD9"/>
<path d="M126.203 390.576L120.714 402.339L123.156 403.479L128.644 391.715L126.203 390.576Z" fill="#F2ECD9"/>
<path d="M112.566 264.545L101.323 271.035L102.67 273.368L113.913 266.879L112.566 264.545Z" fill="#F2ECD9"/>
<path d="M101.131 271.131L80.978 282.763L82.3249 285.096L102.478 273.464L101.131 271.131Z" fill="#F2ECD9"/>
<path d="M64.8532 292.12L54.0342 298.364L55.3811 300.698L66.2 294.453L64.8532 292.12Z" fill="#F2ECD9"/>
<path d="M42.2094 305.283L26.087 314.589L27.4339 316.922L43.5563 307.617L42.2094 305.283Z" fill="#F2ECD9"/>
<path d="M123.642 281.26L112.577 290.555L114.31 292.618L125.375 283.323L123.642 281.26Z" fill="#F2ECD9"/>
<path d="M98.6628 302.176L83.0945 315.25L84.8272 317.313L100.395 304.239L98.6628 302.176Z" fill="#F2ECD9"/>
<path d="M64.5836 330.757L47.325 345.244L49.0571 347.308L66.3158 332.821L64.5836 330.757Z" fill="#F2ECD9"/>
<path d="M137.751 295.394L126.891 308.343L128.955 310.074L139.815 297.125L137.751 295.394Z" fill="#F2ECD9"/>
<path d="M106.724 332.259L90.1978 351.964L92.2621 353.696L108.789 333.99L106.724 332.259Z" fill="#F2ECD9"/>
<path d="M81.8346 361.924L73.4915 371.869L75.5555 373.601L83.8987 363.655L81.8346 361.924Z" fill="#F2ECD9"/>
<path d="M153.954 306.949L142.077 327.526L144.411 328.873L156.288 308.296L153.954 306.949Z" fill="#F2ECD9"/>
<path d="M129.817 348.732L118.43 368.461L120.764 369.807L132.151 350.079L129.817 348.732Z" fill="#F2ECD9"/>
<path d="M118.507 368.513L104.058 393.545L106.392 394.892L120.84 369.86L118.507 368.513Z" fill="#F2ECD9"/>
<path d="M142.773 396.222L137.916 409.572L140.448 410.493L145.305 397.143L142.773 396.222Z" fill="#F2ECD9"/>
<path d="M158.205 353.485L147.325 383.409L149.857 384.33L160.737 354.405L158.205 353.485Z" fill="#F2ECD9"/>
<path d="M172.008 316.017L167.821 327.525L170.353 328.446L174.54 316.938L172.008 316.017Z" fill="#F2ECD9"/>
<path d="M191.238 321.162L190.004 328.157L192.657 328.625L193.892 321.63L191.238 321.162Z" fill="#F2ECD9"/>
<path d="M187.52 342.372L181.429 376.865L184.082 377.334L190.173 342.841L187.52 342.372Z" fill="#F2ECD9"/>
<path d="M176.117 406.777L173.86 419.561L176.514 420.029L178.77 407.245L176.117 406.777Z" fill="#F2ECD9"/>
<path d="M243.486 318.939L240.883 319.636L244.243 332.175L246.845 331.478L243.486 318.939Z" fill="#F2ECD9"/>
<path d="M246.765 331.388L244.162 332.086L250.184 354.561L252.786 353.864L246.765 331.388Z" fill="#F2ECD9"/>
<path d="M257.733 372.089L255.13 372.786L258.363 384.852L260.966 384.154L257.733 372.089Z" fill="#F2ECD9"/>
<path d="M264.553 397.404L261.95 398.101L266.768 416.082L269.37 415.384L264.553 397.404Z" fill="#F2ECD9"/>
<path d="M262.095 311.858L259.653 312.997L265.763 326.092L268.205 324.953L262.095 311.858Z" fill="#F2ECD9"/>
<path d="M275.971 341.237L273.53 342.376L282.125 360.799L284.566 359.66L275.971 341.237Z" fill="#F2ECD9"/>
<path d="M294.874 381.728L292.432 382.866L301.952 403.289L304.394 402.15L294.874 381.728Z" fill="#F2ECD9"/>
<path d="M279.351 301.754L277.145 303.299L286.84 317.142L289.047 315.597L279.351 301.754Z" fill="#F2ECD9"/>
<path d="M306.868 341.045L304.66 342.591L319.412 363.659L321.619 362.114L306.868 341.045Z" fill="#F2ECD9"/>
<path d="M329.102 372.671L326.895 374.215L334.338 384.851L336.546 383.306L329.102 372.671Z" fill="#F2ECD9"/>
<path d="M294.424 288.625L292.519 290.53L309.316 307.332L311.221 305.427L294.424 288.625Z" fill="#F2ECD9"/>
<path d="M328.474 322.366L326.569 324.271L342.676 340.378L344.581 338.473L328.474 322.366Z" fill="#F2ECD9"/>
<path d="M344.609 338.795L342.704 340.7L363.141 361.137L365.046 359.232L344.609 338.795Z" fill="#F2ECD9"/>
<path d="M377.353 322.177L375.807 324.384L387.444 332.533L388.989 330.326L377.353 322.177Z" fill="#F2ECD9"/>
<path d="M340.007 296.152L338.461 298.358L364.543 316.623L366.088 314.416L340.007 296.152Z" fill="#F2ECD9"/>
<path d="M307.119 273.14L305.573 275.347L315.603 282.373L317.149 280.166L307.119 273.14Z" fill="#F2ECD9"/>
<path d="M316.959 255.765L315.82 258.206L322.257 261.209L323.396 258.768L316.959 255.765Z" fill="#F2ECD9"/>
<path d="M336.497 264.763L335.357 267.204L367.097 282.013L368.237 279.572L336.497 264.763Z" fill="#F2ECD9"/>
<path d="M395.777 292.312L394.638 294.753L406.403 300.241L407.542 297.799L395.777 292.312Z" fill="#F2ECD9"/>
<path d="M270.891 307.048L268.558 308.395L275.048 319.637L277.382 318.289L270.891 307.048Z" fill="#F2ECD9"/>
<path d="M277.356 318.3L275.022 319.648L286.657 339.798L288.99 338.451L277.356 318.3Z" fill="#F2ECD9"/>
<path d="M298.461 354.769L296.128 356.116L302.374 366.934L304.707 365.587L298.461 354.769Z" fill="#F2ECD9"/>
<path d="M311.632 377.426L309.298 378.774L318.606 394.894L320.939 393.547L311.632 377.426Z" fill="#F2ECD9"/>
<path d="M287.193 295.44L285.129 297.172L294.42 308.24L296.484 306.508L287.193 295.44Z" fill="#F2ECD9"/>
<path d="M308.087 320.399L306.024 322.131L319.093 337.702L321.157 335.97L308.087 320.399Z" fill="#F2ECD9"/>
<path d="M336.866 354.663L334.802 356.395L349.285 373.658L351.349 371.927L336.866 354.663Z" fill="#F2ECD9"/>
<path d="M301.173 281.143L299.442 283.208L312.391 294.068L314.122 292.003L301.173 281.143Z" fill="#F2ECD9"/>
<path d="M338.016 312.208L336.284 314.271L355.984 330.803L357.716 328.739L338.016 312.208Z" fill="#F2ECD9"/>
<path d="M367.704 337.082L365.971 339.146L375.914 347.493L377.646 345.429L367.704 337.082Z" fill="#F2ECD9"/>
<path d="M312.377 264.697L311.029 267.03L331.604 278.912L332.952 276.579L312.377 264.697Z" fill="#F2ECD9"/>
<path d="M353.952 288.719L352.605 291.052L372.331 302.444L373.679 300.111L353.952 288.719Z" fill="#F2ECD9"/>
<path d="M373.669 300.004L372.322 302.337L397.351 316.788L398.698 314.455L373.669 300.004Z" fill="#F2ECD9"/>
<path d="M401.206 275.641L400.284 278.173L413.634 283.033L414.555 280.501L401.206 275.641Z" fill="#F2ECD9"/>
<path d="M358.478 260.191L357.556 262.723L387.478 273.616L388.399 271.084L358.478 260.191Z" fill="#F2ECD9"/>
<path d="M320.765 246.324L319.843 248.856L331.351 253.045L332.273 250.513L320.765 246.324Z" fill="#F2ECD9"/>
<path d="M325.685 227.059L325.216 229.713L332.211 230.948L332.68 228.295L325.685 227.059Z" fill="#F2ECD9"/>
<path d="M346.884 230.789L346.416 233.443L380.909 239.53L381.377 236.877L346.884 230.789Z" fill="#F2ECD9"/>
<path d="M411.03 242.151L410.563 244.805L423.347 247.058L423.815 244.405L411.03 242.151Z" fill="#F2ECD9"/>
<path d="M335.496 174.14L322.958 177.499L323.655 180.102L336.194 176.742L335.496 174.14Z" fill="#F2ECD9"/>
<path d="M357.869 168.189L335.394 174.211L336.092 176.813L358.567 170.791L357.869 168.189Z" fill="#F2ECD9"/>
<path d="M388.16 160.008L376.094 163.241L376.792 165.844L388.857 162.611L388.16 160.008Z" fill="#F2ECD9"/>
<path d="M419.397 151.61L401.417 156.428L402.114 159.03L420.094 154.212L419.397 151.61Z" fill="#F2ECD9"/>
<path d="M328.994 152.807L315.898 158.917L317.037 161.358L330.133 155.248L328.994 152.807Z" fill="#F2ECD9"/>
<path d="M363.695 136.414L345.272 145.011L346.412 147.453L364.834 138.855L363.695 136.414Z" fill="#F2ECD9"/>
<path d="M406.181 116.583L385.756 126.102L386.894 128.544L407.319 119.025L406.181 116.583Z" fill="#F2ECD9"/>
<path d="M319.613 131.969L305.77 141.663L307.315 143.87L321.158 134.176L319.613 131.969Z" fill="#F2ECD9"/>
<path d="M366.12 99.3841L345.054 114.136L346.6 116.343L367.665 101.591L366.12 99.3841Z" fill="#F2ECD9"/>
<path d="M387.333 84.4441L376.696 91.8864L378.24 94.094L388.877 86.6518L387.333 84.4441Z" fill="#F2ECD9"/>
<path d="M309.442 109.759L292.643 126.559L294.548 128.464L311.348 111.664L309.442 109.759Z" fill="#F2ECD9"/>
<path d="M342.53 76.4001L326.423 92.507L328.328 94.4121L344.435 78.3052L342.53 76.4001Z" fill="#F2ECD9"/>
<path d="M363.306 55.9229L342.867 76.3596L344.772 78.265L365.211 57.8283L363.306 55.9229Z" fill="#F2ECD9"/>
<path d="M334.367 31.9618L326.222 43.6023L328.43 45.1469L336.574 33.5064L334.367 31.9618Z" fill="#F2ECD9"/>
<path d="M318.475 54.8726L300.214 80.957L302.421 82.5022L320.682 56.4178L318.475 54.8726Z" fill="#F2ECD9"/>
<path d="M284.211 103.81L277.188 113.843L279.396 115.388L286.418 105.355L284.211 103.81Z" fill="#F2ECD9"/>
<path d="M262.811 97.5815L259.808 104.018L262.249 105.157L265.252 98.7206L262.811 97.5815Z" fill="#F2ECD9"/>
<path d="M283.587 52.729L268.778 84.4691L271.22 85.6083L286.028 53.8682L283.587 52.729Z" fill="#F2ECD9"/>
<path d="M301.851 13.4466L296.363 25.2104L298.804 26.3496L304.293 14.5858L301.851 13.4466Z" fill="#F2ECD9"/>
</svg>
