<svg width="579" height="342" viewBox="0 0 579 342" fill="none" xmlns="http://www.w3.org/2000/svg">
<path d="M290.616 169.911H287.807V207.505H290.616V169.911Z" fill="#F2ECD9"/>
<path d="M290.616 157.847H287.807V167.666H290.616V157.847Z" fill="#F2ECD9"/>
<path d="M287.807 151.955H290.616V135.402H290.336L290.616 134.841V109.591H287.807V151.955Z" fill="#F2ECD9"/>
<path d="M290.616 39.733H287.807V93.0385H290.616V39.733Z" fill="#F2ECD9"/>
<path d="M290.616 2.69952H287.807V13.6412H290.616V2.69952Z" fill="#F2ECD9"/>
<path d="M269.825 187.024L270.668 192.074L273.477 191.513L272.634 186.744L269.825 187.024Z" fill="#F2ECD9"/>
<path d="M271.404 179.817L268.638 180.309L269.328 184.176L272.095 183.684L271.404 179.817Z" fill="#F2ECD9"/>
<path d="M266.049 148.706L263.282 149.193L265.723 163.008L268.49 162.521L266.049 148.706Z" fill="#F2ECD9"/>
<path d="M261.396 138.488L263.924 137.927L253.247 76.7662L250.438 77.3273L261.396 138.488Z" fill="#F2ECD9"/>
<path d="M247.273 43.2819L244.506 43.7695L247.973 63.3861L250.74 62.8985L247.273 43.2819Z" fill="#F2ECD9"/>
<path d="M252.405 192.074L263.643 222.936L266.453 222.094L254.933 190.952L252.405 192.074Z" fill="#F2ECD9"/>
<path d="M248.79 173.826L246.15 174.784L251.429 189.286L254.069 188.327L248.79 173.826Z" fill="#F2ECD9"/>
<path d="M242.851 157.847L216.721 86.3051L214.192 87.1467L240.323 158.688L242.851 157.847Z" fill="#F2ECD9"/>
<path d="M205.763 56.0052L190.31 13.0803L187.5 14.2025L203.235 56.8469L205.763 56.0052Z" fill="#F2ECD9"/>
<path d="M240.227 201.299L237.794 202.701L247.206 218.98L249.64 217.577L240.227 201.299Z" fill="#F2ECD9"/>
<path d="M219.414 165.169L216.983 166.574L218.531 169.245L220.962 167.84L219.414 165.169Z" fill="#F2ECD9"/>
<path d="M208.71 146.826L206.277 148.228L215.127 163.535L217.561 162.132L208.71 146.826Z" fill="#F2ECD9"/>
<path d="M170.78 80.8794L168.347 82.2822L200.94 138.649L203.373 137.246L170.78 80.8794Z" fill="#F2ECD9"/>
<path d="M147.217 40.2738L144.783 41.6763L150.261 51.1529L152.695 49.7504L147.217 40.2738Z" fill="#F2ECD9"/>
<path d="M219.262 203.532L217.11 205.336L235.713 227.471L237.865 225.667L219.262 203.532Z" fill="#F2ECD9"/>
<path d="M211.957 194.766L209.805 196.569L212.695 200.008L214.847 198.204L211.957 194.766Z" fill="#F2ECD9"/>
<path d="M201.054 181.744L198.902 183.548L202.694 188.061L204.847 186.258L201.054 181.744Z" fill="#F2ECD9"/>
<path d="M176.93 152.92L174.778 154.723L194.461 178.15L196.613 176.347L176.93 152.92Z" fill="#F2ECD9"/>
<path d="M141.57 111.098L139.417 112.901L150.792 126.443L152.945 124.64L141.57 111.098Z" fill="#F2ECD9"/>
<path d="M207.061 218.24L205.255 220.389L234.095 244.555L235.901 242.406L207.061 218.24Z" fill="#F2ECD9"/>
<path d="M196.491 209.469L186.938 201.333L185.252 203.297L194.805 211.433L195.367 211.713L195.648 211.994L195.929 211.713H196.491L197.053 211.152V210.872C197.053 210.591 197.053 210.591 197.053 210.31L197.334 210.03L196.491 209.469Z" fill="#F2ECD9"/>
<path d="M181.881 200.491L183.567 198.527L181.038 196.563L179.352 198.527L181.881 200.491Z" fill="#F2ECD9"/>
<path d="M171.252 188.244L169.447 190.394L176.551 196.343L178.357 194.194L171.252 188.244Z" fill="#F2ECD9"/>
<path d="M113.116 139.414L111.31 141.563L138.213 164.106L140.019 161.957L113.116 139.414Z" fill="#F2ECD9"/>
<path d="M88.7424 119.078L86.9363 121.227L98.5584 130.966L100.364 128.816L88.7424 119.078Z" fill="#F2ECD9"/>
<path d="M200.077 235.873L198.672 238.303L203.052 240.828L204.456 238.398L200.077 235.873Z" fill="#F2ECD9"/>
<path d="M103.464 180.195L102.059 182.624L186.735 231.441L188.14 229.011L103.464 180.195Z" fill="#F2ECD9"/>
<path d="M62.3435 156.568L60.9384 158.998L89.8935 175.694L91.2986 173.265L62.3435 156.568Z" fill="#F2ECD9"/>
<path d="M41.5641 144.603L40.1584 147.032L49.6458 152.506L51.0515 150.077L41.5641 144.603Z" fill="#F2ECD9"/>
<path d="M173.084 245.232L172.122 247.868L192.717 255.354L193.678 252.718L173.084 245.232Z" fill="#F2ECD9"/>
<path d="M151.342 237.134L150.381 239.77L156.981 242.169L157.943 239.533L151.342 237.134Z" fill="#F2ECD9"/>
<path d="M103.872 219.867L102.911 222.503L124.562 230.371L125.523 227.735L103.872 219.867Z" fill="#F2ECD9"/>
<path d="M81.0123 211.713L55.163 202.455L54.3201 204.98L79.8884 214.238L81.0123 211.713Z" fill="#F2ECD9"/>
<path d="M156.768 264.161L156.28 266.924L196.401 273.99L196.889 271.227L156.768 264.161Z" fill="#F2ECD9"/>
<path d="M149.479 262.817L148.994 265.58L152.039 266.113L152.524 263.349L149.479 262.817Z" fill="#F2ECD9"/>
<path d="M136.923 260.645L136.434 263.408L145.565 265.019L146.054 262.256L136.923 260.645Z" fill="#F2ECD9"/>
<path d="M115.807 256.819L115.319 259.582L120.853 260.556L121.341 257.793L115.807 256.819Z" fill="#F2ECD9"/>
<path d="M61.8012 247.435L61.3135 250.198L110.289 258.819L110.777 256.056L61.8012 247.435Z" fill="#F2ECD9"/>
<path d="M195.367 287.463H181.038V290.269H195.367V287.463Z" fill="#F2ECD9"/>
<path d="M177.666 287.463H167.27V290.269H177.666V287.463Z" fill="#F2ECD9"/>
<path d="M159.684 287.463H154.346V290.269H159.684V287.463Z" fill="#F2ECD9"/>
<path d="M150.131 287.463H135.521V287.744L134.116 287.183V290.269H150.131V287.463Z" fill="#F2ECD9"/>
<path d="M114.448 287.463H109.671V290.269H114.448V287.463Z" fill="#F2ECD9"/>
<path d="M93.0942 287.463H65.2781V290.269H93.0942V287.463Z" fill="#F2ECD9"/>
<path d="M51.2294 287.463H2.62146V290.269H51.2294V287.463Z" fill="#F2ECD9"/>
<path d="M219.23 299.884L206.778 302.081L207.267 304.844L219.718 302.647L219.23 299.884Z" fill="#F2ECD9"/>
<path d="M191.68 304.596L182.273 306.257L182.762 309.02L192.169 307.359L191.68 304.596Z" fill="#F2ECD9"/>
<path d="M179.03 306.804L168.791 308.604L169.278 311.367L179.517 309.567L179.03 306.804Z" fill="#F2ECD9"/>
<path d="M162.755 309.822L152.24 311.671L152.727 314.434L163.242 312.585L162.755 309.822Z" fill="#F2ECD9"/>
<path d="M150.692 311.847L143.774 313.067L144.263 315.83L151.18 314.61L150.692 311.847Z" fill="#F2ECD9"/>
<path d="M113.913 318.44L108.656 319.368L109.145 322.131L114.402 321.202L113.913 318.44Z" fill="#F2ECD9"/>
<path d="M17.4303 335.32L0 338.397L0.48917 341.16L17.9195 338.082L17.4303 335.32Z" fill="#F2ECD9"/>
<path d="M359.054 299.701L358.566 302.463L391.216 308.214L391.704 305.451L359.054 299.701Z" fill="#F2ECD9"/>
<path d="M407.87 308.256L407.382 311.019L416.79 312.674L417.277 309.911L407.87 308.256Z" fill="#F2ECD9"/>
<path d="M448.633 315.429L448.145 318.192L462.533 320.726L463.021 317.964L448.633 315.429Z" fill="#F2ECD9"/>
<path d="M482.552 321.493L482.064 324.256L501.157 327.619L501.645 324.856L482.552 321.493Z" fill="#F2ECD9"/>
<path d="M533.584 330.317L533.097 333.08L551.636 336.343L552.123 333.58L533.584 330.317Z" fill="#F2ECD9"/>
<path d="M570.146 336.835L569.662 339.599L577.965 341.049L578.449 338.285L570.146 336.835Z" fill="#F2ECD9"/>
<path d="M411.434 287.463H370.974V290.269H411.434V287.463Z" fill="#F2ECD9"/>
<path d="M461.728 287.463H422.392V290.269H442.903V289.988L443.465 290.269H461.728V287.463Z" fill="#F2ECD9"/>
<path d="M487.015 287.463H467.066V290.269H487.015V287.463Z" fill="#F2ECD9"/>
<path d="M529.161 287.463H518.765V290.269H529.161V287.463Z" fill="#F2ECD9"/>
<path d="M576.083 287.463H565.125V290.269H576.083V287.463Z" fill="#F2ECD9"/>
<path d="M387.909 270.057L358.579 275.222L359.067 277.985L388.397 272.82L387.909 270.057Z" fill="#F2ECD9"/>
<path d="M397.967 268.442L392.156 269.466L392.644 272.229L398.455 271.205L397.967 268.442Z" fill="#F2ECD9"/>
<path d="M418.16 264.924L407.37 266.829L407.859 269.592L418.649 267.687L418.16 264.924Z" fill="#F2ECD9"/>
<path d="M450.064 259.064L430.141 262.571L430.629 265.334L450.552 261.827L450.064 259.064Z" fill="#F2ECD9"/>
<path d="M465.71 256.486L461.006 257.316L461.495 260.079L466.199 259.249L465.71 256.486Z" fill="#F2ECD9"/>
<path d="M547.788 241.841L481.933 253.439L482.421 256.202L548.276 244.603L547.788 241.841Z" fill="#F2ECD9"/>
<path d="M571.257 237.731L560.466 239.633L560.954 242.396L571.746 240.494L571.257 237.731Z" fill="#F2ECD9"/>
<path d="M390.621 250.63L343.36 267.805L344.321 270.441L391.582 253.266L390.621 250.63Z" fill="#F2ECD9"/>
<path d="M403.344 245.973L393.575 249.523L394.536 252.159L404.305 248.609L403.344 245.973Z" fill="#F2ECD9"/>
<path d="M422.528 239.09L413.816 242.259L414.778 244.895L423.49 241.726L422.528 239.09Z" fill="#F2ECD9"/>
<path d="M454.643 227.342L449.361 229.256L450.319 231.893L455.602 229.979L454.643 227.342Z" fill="#F2ECD9"/>
<path d="M535.774 197.727L512.275 206.266L513.236 208.903L536.735 200.363L535.774 197.727Z" fill="#F2ECD9"/>
<path d="M564.661 187.397L548.032 193.454L548.995 196.09L565.624 190.033L564.661 187.397Z" fill="#F2ECD9"/>
<path d="M371.375 239.842L338.77 258.639L340.175 261.068L372.78 242.271L371.375 239.842Z" fill="#F2ECD9"/>
<path d="M384.319 232.46L376.778 236.812L378.184 239.241L385.725 234.889L384.319 232.46Z" fill="#F2ECD9"/>
<path d="M400.954 222.903L390.242 229.066L391.645 231.497L402.357 225.334L400.954 222.903Z" fill="#F2ECD9"/>
<path d="M410.443 217.304L403.63 221.232L405.034 223.662L411.847 219.734L410.443 217.304Z" fill="#F2ECD9"/>
<path d="M422.906 210.323L412.687 216.217L414.093 218.646L424.311 212.752L422.906 210.323Z" fill="#F2ECD9"/>
<path d="M447.219 196.139L436.513 202.311L437.918 204.741L448.624 198.569L447.219 196.139Z" fill="#F2ECD9"/>
<path d="M488.749 172.188L473.423 181.032L474.829 183.461L490.155 174.617L488.749 172.188Z" fill="#F2ECD9"/>
<path d="M519.397 154.756L503.095 164.154L504.5 166.584L520.802 157.185L519.397 154.756Z" fill="#F2ECD9"/>
<path d="M542.589 141.383L535.285 145.585L536.688 148.016L543.991 143.814L542.589 141.383Z" fill="#F2ECD9"/>
<path d="M371.399 218.4L366.662 222.365L368.467 224.516L373.204 220.551L371.399 218.4Z" fill="#F2ECD9"/>
<path d="M407.291 188.218L393.51 199.751L395.315 201.901L409.096 190.368L407.291 188.218Z" fill="#F2ECD9"/>
<path d="M471.981 134.131L419.251 178.314L421.057 180.463L473.787 136.28L471.981 134.131Z" fill="#F2ECD9"/>
<path d="M513.255 99.4433L488.491 120.17L490.296 122.32L515.06 101.593L513.255 99.4433Z" fill="#F2ECD9"/>
<path d="M349.848 214.786L320.77 249.39L322.923 251.193L352 216.589L349.848 214.786Z" fill="#F2ECD9"/>
<path d="M358.611 208.347L356.645 206.663L353.835 210.03L355.802 211.713L358.611 208.347Z" fill="#F2ECD9"/>
<path d="M366.798 194.685L358.303 204.78L360.454 206.585L368.949 196.489L366.798 194.685Z" fill="#F2ECD9"/>
<path d="M374.95 184.897L370.614 190.054L372.766 191.857L377.102 186.7L374.95 184.897Z" fill="#F2ECD9"/>
<path d="M381.651 180.852L379.684 179.169L377.717 181.694L379.684 183.377L381.651 180.852Z" fill="#F2ECD9"/>
<path d="M405.736 148.034L392.003 164.363L394.155 166.167L407.887 149.839L405.736 148.034Z" fill="#F2ECD9"/>
<path d="M432.204 116.754L425.521 124.705L427.673 126.509L434.356 118.558L432.204 116.754Z" fill="#F2ECD9"/>
<path d="M459.541 84.064L447.438 98.4627L449.591 100.266L461.693 85.8677L459.541 84.064Z" fill="#F2ECD9"/>
<path d="M339.786 198.476L308.598 252.413L311.031 253.816L342.219 199.878L339.786 198.476Z" fill="#F2ECD9"/>
<path d="M344.687 190.098L341.313 195.928L343.746 197.332L347.12 191.502L344.687 190.098Z" fill="#F2ECD9"/>
<path d="M349.058 182.536L348.777 183.097V183.377C348.777 183.658 349.058 183.938 349.339 184.219C349.62 184.219 349.62 184.5 350.182 184.5C350.463 184.5 350.744 184.5 350.744 184.5H351.025L351.587 183.938L355.521 177.205L353.273 175.802L349.058 182.536Z" fill="#F2ECD9"/>
<path d="M359.278 165.061L354.642 173.079L357.076 174.482L361.712 166.464L359.278 165.061Z" fill="#F2ECD9"/>
<path d="M374.448 138.836L364.754 155.6L367.187 157.003L376.881 140.238L374.448 138.836Z" fill="#F2ECD9"/>
<path d="M403.423 88.4404L378.557 131.444L380.99 132.847L405.856 89.8432L403.423 88.4404Z" fill="#F2ECD9"/>
<path d="M419.53 60.6903L411.953 73.8162L414.387 75.2173L421.964 62.0913L419.53 60.6903Z" fill="#F2ECD9"/>
<path d="M434.762 34.4581L430.535 41.7394L432.966 43.1464L437.193 35.8651L434.762 34.4581Z" fill="#F2ECD9"/>
<path d="M318.433 212.836L326.019 192.074L323.49 190.952L315.904 211.713L318.433 212.836Z" fill="#F2ECD9"/>
<path d="M328.776 176.678L325.235 186.438L327.876 187.393L331.417 177.634L328.776 176.678Z" fill="#F2ECD9"/>
<path d="M332.2 166.824L334.729 167.666L336.696 162.897L334.167 162.055L332.2 166.824Z" fill="#F2ECD9"/>
<path d="M337.582 152.225L335.566 157.762L338.207 158.72L340.222 153.183L337.582 152.225Z" fill="#F2ECD9"/>
<path d="M358.05 103.98L355.521 102.858L347.654 124.461L350.182 125.583L358.05 103.98Z" fill="#F2ECD9"/>
<path d="M372.379 64.4219L369.85 63.5802L363.95 79.8524L366.478 80.9746L372.379 64.4219Z" fill="#F2ECD9"/>
<path d="M385.304 29.0717L382.775 27.9495L378.56 40.0133L381.089 40.855L385.304 29.0717Z" fill="#F2ECD9"/>
<path d="M306.351 183.938L297.922 231.633L300.731 231.913L309.16 184.499L306.351 183.938Z" fill="#F2ECD9"/>
<path d="M310.513 161.025L306.857 181.747L309.624 182.234L313.28 161.512L310.513 161.025Z" fill="#F2ECD9"/>
<path d="M312.378 150.274L311.745 153.866L314.512 154.353L315.145 150.761L312.378 150.274Z" fill="#F2ECD9"/>
<path d="M313.536 143.775L312.805 147.92L315.572 148.406L316.303 144.262L313.536 143.775Z" fill="#F2ECD9"/>
<path d="M319.702 108.658L318.777 113.909L321.544 114.395L322.47 109.145L319.702 108.658Z" fill="#F2ECD9"/>
<path d="M331.247 43.3857L329.248 54.7136L332.015 55.2007L334.014 43.8727L331.247 43.3857Z" fill="#F2ECD9"/>
<path d="M338.866 -1.36631e-06L333.836 28.1731L336.602 28.6655L341.632 0.492373L338.866 -1.36631e-06Z" fill="#F2ECD9"/>
</svg>
