<svg width="424" height="213" viewBox="0 0 424 213" fill="none" xmlns="http://www.w3.org/2000/svg">
<path d="M166.207 99.6767L163.678 100.857L170.007 114.422L172.536 113.242L166.207 99.6767Z" fill="#F2ECD9"/>
<path d="M149.476 63.6388L146.947 64.8188L155.851 83.9025L158.38 82.7225L149.476 63.6388Z" fill="#F2ECD9"/>
<path d="M128.913 19.6302L126.384 20.8093L136.246 41.9646L138.775 40.7855L128.913 19.6302Z" fill="#F2ECD9"/>
<path d="M144.53 109.212L142.244 110.813L152.288 125.153L154.574 123.552L144.53 109.212Z" fill="#F2ECD9"/>
<path d="M110.659 60.8207L108.373 62.4216L123.654 84.2458L125.94 82.645L110.659 60.8207Z" fill="#F2ECD9"/>
<path d="M95.1741 38.885L92.8875 40.4854L100.598 51.5027L102.885 49.9024L95.1741 38.885Z" fill="#F2ECD9"/>
<path d="M121.091 119.201L119.118 121.174L136.52 138.579L138.494 136.606L121.091 119.201Z" fill="#F2ECD9"/>
<path d="M86.7013 84.7421L84.7278 86.7156L101.413 103.4L103.386 101.427L86.7013 84.7421Z" fill="#F2ECD9"/>
<path d="M65.3312 63.4294L63.3574 65.4028L84.5275 86.5759L86.5013 84.6024L65.3312 63.4294Z" fill="#F2ECD9"/>
<path d="M40.2842 92.9034L38.6833 95.1895L50.7372 103.631L52.3381 101.344L40.2842 92.9034Z" fill="#F2ECD9"/>
<path d="M63.8558 109.557L62.2549 111.844L89.2721 130.763L90.8729 128.477L63.8558 109.557Z" fill="#F2ECD9"/>
<path d="M114.546 145.062L112.945 147.348L123.336 154.625L124.937 152.339L114.546 145.062Z" fill="#F2ECD9"/>
<path d="M112.79 143.624L111.189 145.91L123.453 154.494L125.053 152.208L112.79 143.624Z" fill="#F2ECD9"/>
<path d="M80.1689 120.843L78.5686 123.13L95.8222 135.205L97.4226 132.918L80.1689 120.843Z" fill="#F2ECD9"/>
<path d="M40.3353 92.9937L38.7341 95.2798L57.854 108.671L59.4551 106.385L40.3353 92.9937Z" fill="#F2ECD9"/>
<path d="M98.5988 162.655L97.4199 165.185L113.288 172.58L114.467 170.05L98.5988 162.655Z" fill="#F2ECD9"/>
<path d="M44.9844 137.817L43.8049 140.347L67.9496 151.605L69.129 149.076L44.9844 137.817Z" fill="#F2ECD9"/>
<path d="M20.6366 126.341L19.4565 128.87L31.6425 134.556L32.8225 132.026L20.6366 126.341Z" fill="#F2ECD9"/>
<path d="M83.4174 183.227L82.6948 185.923L106.467 192.294L107.189 189.599L83.4174 183.227Z" fill="#F2ECD9"/>
<path d="M36.1928 170.46L35.4702 173.156L58.2618 179.265L58.9844 176.569L36.1928 170.46Z" fill="#F2ECD9"/>
<path d="M7.17884 162.618L6.45654 165.314L35.3749 173.062L36.0972 170.366L7.17884 162.618Z" fill="#F2ECD9"/>
<path d="M0.243395 200.771L0 203.551L14.66 204.834L14.9034 202.054L0.243395 200.771Z" fill="#F2ECD9"/>
<path d="M28.9353 203.277L28.6919 206.058L61.5505 208.934L61.7939 206.154L28.9353 203.277Z" fill="#F2ECD9"/>
<path d="M90.6298 208.708L90.3862 211.488L103.024 212.595L103.268 209.815L90.6298 208.708Z" fill="#F2ECD9"/>
<path d="M342.284 163.733L328.718 170.063L329.898 172.592L343.464 166.262L342.284 163.733Z" fill="#F2ECD9"/>
<path d="M378.321 147.001L359.237 155.907L360.417 158.436L379.501 149.531L378.321 147.001Z" fill="#F2ECD9"/>
<path d="M422.094 126.571L400.941 136.44L402.121 138.969L423.274 129.1L422.094 126.571Z" fill="#F2ECD9"/>
<path d="M332.319 142.305L317.974 152.34L319.574 154.627L333.919 144.592L332.319 142.305Z" fill="#F2ECD9"/>
<path d="M380.699 108.418L358.883 123.707L360.485 125.992L382.301 110.703L380.699 108.418Z" fill="#F2ECD9"/>
<path d="M402.651 92.9507L391.633 100.659L393.232 102.946L404.251 95.2376L402.651 92.9507Z" fill="#F2ECD9"/>
<path d="M321.952 119.153L304.55 136.556L306.523 138.529L323.926 121.127L321.952 119.153Z" fill="#F2ECD9"/>
<path d="M356.428 84.7617L339.743 101.449L341.716 103.422L358.401 86.7352L356.428 84.7617Z" fill="#F2ECD9"/>
<path d="M377.545 63.5778L356.375 84.7478L358.348 86.7213L379.518 65.5512L377.545 63.5778Z" fill="#F2ECD9"/>
<path d="M347.938 38.745L339.502 50.8018L341.788 52.4018L350.225 40.3451L347.938 38.745Z" fill="#F2ECD9"/>
<path d="M331.264 62.2867L312.348 89.3071L314.634 90.9077L333.551 63.8873L331.264 62.2867Z" fill="#F2ECD9"/>
<path d="M295.792 112.993L288.51 123.381L290.796 124.983L298.077 114.595L295.792 112.993Z" fill="#F2ECD9"/>
<path d="M297.226 111.232L288.644 123.499L290.931 125.099L299.513 112.832L297.226 111.232Z" fill="#F2ECD9"/>
<path d="M319.975 78.6009L307.904 95.8567L310.191 97.4565L322.262 80.2007L319.975 78.6009Z" fill="#F2ECD9"/>
<path d="M347.683 38.973L334.303 58.0999L336.59 59.6996L349.97 40.5728L347.683 38.973Z" fill="#F2ECD9"/>
<path d="M277.932 97.4656L270.53 113.33L273.059 114.51L280.461 98.6456L277.932 97.4656Z" fill="#F2ECD9"/>
<path d="M302.659 44.0821L291.396 68.2241L293.925 69.4041L305.188 45.2622L302.659 44.0821Z" fill="#F2ECD9"/>
<path d="M314.156 19.7418L308.471 31.9277L311 33.1077L316.686 20.9218L314.156 19.7418Z" fill="#F2ECD9"/>
<path d="M257.189 82.7403L250.82 106.512L253.516 107.235L259.885 83.4626L257.189 82.7403Z" fill="#F2ECD9"/>
<path d="M269.896 35.7604L263.79 58.552L266.485 59.2743L272.592 36.4827L269.896 35.7604Z" fill="#F2ECD9"/>
<path d="M277.734 6.74423L269.983 35.6626L272.679 36.3852L280.43 7.46681L277.734 6.74423Z" fill="#F2ECD9"/>
<path d="M239.555 0.0360551L238.275 14.696L241.056 14.9387L242.335 0.278705L239.555 0.0360551Z" fill="#F2ECD9"/>
<path d="M237.044 28.7263L234.177 61.585L236.957 61.8276L239.825 28.969L237.044 28.7263Z" fill="#F2ECD9"/>
<path d="M231.612 90.4221L230.51 103.06L233.29 103.302L234.392 90.6645L231.612 90.4221Z" fill="#F2ECD9"/>
<path d="M231.945 88.1322L230.643 103.045L233.423 103.288L234.725 88.3748L231.945 88.1322Z" fill="#F2ECD9"/>
<path d="M235.249 48.5965L233.418 69.5754L236.199 69.8181L238.03 48.8391L235.249 48.5965Z" fill="#F2ECD9"/>
<path d="M239.461 0.227901L237.431 23.4817L240.212 23.7243L242.241 0.470551L239.461 0.227901Z" fill="#F2ECD9"/>
<path d="M211.137 85.7706L208.357 86.0142L209.885 103.455L212.665 103.211L211.137 85.7706Z" fill="#F2ECD9"/>
<path d="M205.91 26.9292L203.13 27.1724L205.451 53.712L208.231 53.4689L205.91 26.9292Z" fill="#F2ECD9"/>
<path d="M203.677 -4.2692e-05L200.897 0.242676L202.066 13.6389L204.847 13.3962L203.677 -4.2692e-05Z" fill="#F2ECD9"/>
<path d="M185.789 82.6139L183.094 83.3359L189.46 107.108L192.156 106.386L185.789 82.6139Z" fill="#F2ECD9"/>
<path d="M173.268 35.64L170.572 36.3623L176.679 59.1539L179.375 58.4316L173.268 35.64Z" fill="#F2ECD9"/>
<path d="M165.329 6.60314L162.633 7.32544L170.382 36.2438L173.077 35.5215L165.329 6.60314Z" fill="#F2ECD9"/>
<path d="M128.927 19.4509L126.398 20.6304L132.617 33.9674L135.146 32.788L128.927 19.4509Z" fill="#F2ECD9"/>
<path d="M141.101 45.6944L138.571 46.8735L152.507 76.7669L155.036 75.5877L141.101 45.6944Z" fill="#F2ECD9"/>
<path d="M167.241 101.826L164.711 103.005L170.073 114.503L172.602 113.323L167.241 101.826Z" fill="#F2ECD9"/>
</svg>
