<svg width="418" height="418" viewBox="0 0 418 418" fill="none" xmlns="http://www.w3.org/2000/svg">
<path d="M350.217 357.522L346.657 357.845L347.261 364.489L350.82 364.166L350.217 357.522Z" fill="#F2ECD9"/>
<path d="M346.658 319.939L343.099 320.263L345.603 347.788L349.163 347.464L346.658 319.939Z" fill="#F2ECD9"/>
<path d="M292.296 341.489L285.618 352.487L288.673 354.342L295.351 343.344L292.296 341.489Z" fill="#F2ECD9"/>
<path d="M307.758 315.812L296.135 334.957L299.19 336.811L310.813 317.667L307.758 315.812Z" fill="#F2ECD9"/>
<path d="M325.045 287.277L315.771 302.552L318.826 304.407L328.1 289.132L325.045 287.277Z" fill="#F2ECD9"/>
<path d="M231.102 320.633L210.736 339.667L213.176 342.278L233.542 323.245L231.102 320.633Z" fill="#F2ECD9"/>
<path d="M270.194 284.335L244.257 308.575L246.697 311.186L272.634 286.946L270.194 284.335Z" fill="#F2ECD9"/>
<path d="M299.931 256.59L284.09 271.394L286.531 274.005L302.371 259.201L299.931 256.59Z" fill="#F2ECD9"/>
<path d="M144.17 6.41303L142.11 9.33325L163.72 24.5771L165.78 21.6569L144.17 6.41303Z" fill="#F2ECD9"/>
<path d="M171.678 25.5982L169.618 28.5188L178.574 34.8361L180.634 31.9155L171.678 25.5982Z" fill="#F2ECD9"/>
<path d="M141.044 64.3925L121.512 64.8329L121.593 68.4057L141.124 67.9654L141.044 64.3925Z" fill="#F2ECD9"/>
<path d="M180.833 63.6444L158.444 64.1492L158.524 67.722L180.914 67.2172L180.833 63.6444Z" fill="#F2ECD9"/>
<path d="M197.752 63.3081L187.748 63.5337L187.829 67.1065L197.832 66.881L197.752 63.3081Z" fill="#F2ECD9"/>
<path d="M100.646 134.269L94.2632 136.211L95.3039 139.63L101.686 137.688L100.646 134.269Z" fill="#F2ECD9"/>
<path d="M145.471 120.617L109.232 131.652L110.273 135.071L146.513 124.036L145.471 120.617Z" fill="#F2ECD9"/>
<path d="M185.468 108.504L167.92 113.857L168.963 117.276L186.511 111.922L185.468 108.504Z" fill="#F2ECD9"/>
<path d="M210.777 100.663L196.647 104.975L197.691 108.394L211.82 104.082L210.777 100.663Z" fill="#F2ECD9"/>
<path d="M163.617 3.63805L160.819 9.69421L164.064 11.1931L166.862 5.13693L163.617 3.63805Z" fill="#F2ECD9"/>
<path d="M156.733 18.9894L145.142 44.0792L148.386 45.5781L159.978 20.4883L156.733 18.9894Z" fill="#F2ECD9"/>
<path d="M212.792 43.1327L201.507 49.3135L203.224 52.4481L214.509 46.2673L212.792 43.1327Z" fill="#F2ECD9"/>
<path d="M194.829 53.0268L175.185 63.7838L176.902 66.9185L196.545 56.1615L194.829 53.0268Z" fill="#F2ECD9"/>
<path d="M161.537 71.2838L145.864 79.8683L147.58 83.0029L163.254 74.4185L161.537 71.2838Z" fill="#F2ECD9"/>
<path d="M271.838 91.3107L244.681 97.5996L245.488 101.081L272.645 94.7924L271.838 91.3107Z" fill="#F2ECD9"/>
<path d="M227.43 101.635L192.846 109.644L193.652 113.125L228.237 105.116L227.43 101.635Z" fill="#F2ECD9"/>
<path d="M174.474 113.903L153.352 118.795L154.158 122.276L175.281 117.385L174.474 113.903Z" fill="#F2ECD9"/>
<path d="M155.922 391.505L152.678 393.004L163.772 417.013L167.016 415.513L155.922 391.505Z" fill="#F2ECD9"/>
<path d="M148.361 375.028L145.117 376.528L149.715 386.476L152.959 384.977L148.361 375.028Z" fill="#F2ECD9"/>
<path d="M197.218 364.763L195.501 367.897L212.635 377.285L214.352 374.15L197.218 364.763Z" fill="#F2ECD9"/>
<path d="M162.634 345.809L160.917 348.943L180.559 359.704L182.276 356.57L162.634 345.809Z" fill="#F2ECD9"/>
<path d="M147.608 337.834L145.891 340.968L154.667 345.777L156.384 342.642L147.608 337.834Z" fill="#F2ECD9"/>
<path d="M266.261 324.497L265.455 327.979L271.954 329.484L272.76 326.003L266.261 324.497Z" fill="#F2ECD9"/>
<path d="M220.767 313.862L219.96 317.344L256.866 325.902L257.673 322.42L220.767 313.862Z" fill="#F2ECD9"/>
<path d="M179.949 304.317L179.142 307.798L197.015 311.943L197.822 308.461L179.949 304.317Z" fill="#F2ECD9"/>
<path d="M154.221 298.496L153.413 301.977L167.804 305.314L168.612 301.833L154.221 298.496Z" fill="#F2ECD9"/>
<path d="M405.468 267.006L402.547 269.066L406.392 274.518L409.313 272.459L405.468 267.006Z" fill="#F2ECD9"/>
<path d="M383.747 236.232L380.827 238.292L396.758 260.875L399.678 258.815L383.747 236.232Z" fill="#F2ECD9"/>
<path d="M347.397 282.059L347.113 294.922L350.687 295.001L350.97 282.138L347.397 282.059Z" fill="#F2ECD9"/>
<path d="M348.017 252.173L347.522 274.565L351.096 274.644L351.591 252.252L348.017 252.173Z" fill="#F2ECD9"/>
<path d="M348.67 218.749L348.276 236.615L351.849 236.694L352.243 218.828L348.67 218.749Z" fill="#F2ECD9"/>
<path d="M284.183 294.542L276.066 321.211L279.485 322.252L287.603 295.583L284.183 294.542Z" fill="#F2ECD9"/>
<path d="M299.63 243.446L289.292 277.409L292.711 278.45L303.049 244.486L299.63 243.446Z" fill="#F2ECD9"/>
<path d="M311.393 204.669L305.077 225.409L308.496 226.45L314.812 205.71L311.393 204.669Z" fill="#F2ECD9"/>
<path d="M51.5055 65.843L51.1815 69.4022L77.5198 71.7997L77.8438 68.2404L51.5055 65.843Z" fill="#F2ECD9"/>
<path d="M85.0362 68.8037L84.7123 72.3629L95.6273 73.3563L95.9512 69.7971L85.0362 68.8037Z" fill="#F2ECD9"/>
<path d="M77.8983 117.691L61.2037 127.838L63.06 130.892L79.7546 120.745L77.8983 117.691Z" fill="#F2ECD9"/>
<path d="M112.045 97.1054L92.905 108.736L94.7609 111.79L113.901 100.16L112.045 97.1054Z" fill="#F2ECD9"/>
<path d="M126.374 88.5161L117.822 93.7126L119.678 96.7669L128.23 91.5703L126.374 88.5161Z" fill="#F2ECD9"/>
<path d="M77.8789 198.256L73.3231 203.13L75.9342 205.571L80.49 200.697L77.8789 198.256Z" fill="#F2ECD9"/>
<path d="M109.759 164.305L83.8889 191.983L86.5 194.423L112.37 166.746L109.759 164.305Z" fill="#F2ECD9"/>
<path d="M138.264 133.61L125.745 147.021L128.357 149.46L140.876 136.049L138.264 133.61Z" fill="#F2ECD9"/>
<path d="M156.514 114.276L146.434 125.074L149.046 127.513L159.127 116.715L156.514 114.276Z" fill="#F2ECD9"/>
<path d="M70.7415 53.5071L67.1823 53.8313L67.7873 60.4752L71.3466 60.151L70.7415 53.5071Z" fill="#F2ECD9"/>
<path d="M72.168 70.2375L68.6088 70.5616L71.1154 98.0864L74.6746 97.7622L72.168 70.2375Z" fill="#F2ECD9"/>
<path d="M129.354 63.6111L122.671 74.6051L125.725 76.4614L132.407 65.4674L129.354 63.6111Z" fill="#F2ECD9"/>
<path d="M118.636 81.0356L107.003 100.173L110.057 102.029L121.69 82.8918L118.636 81.0356Z" fill="#F2ECD9"/>
<path d="M98.9938 113.421L89.7124 128.69L92.7663 130.546L102.048 115.277L98.9938 113.421Z" fill="#F2ECD9"/>
<path d="M204.506 75.699L184.131 94.7246L186.571 97.3368L206.945 78.3112L204.506 75.699Z" fill="#F2ECD9"/>
<path d="M171.325 106.806L145.378 131.035L147.817 133.647L173.764 109.418L171.325 106.806Z" fill="#F2ECD9"/>
<path d="M131.491 143.986L115.644 158.784L118.083 161.396L133.93 146.598L131.491 143.986Z" fill="#F2ECD9"/>
<path d="M254.164 393.566L252.104 396.487L273.716 411.73L275.776 408.81L254.164 393.566Z" fill="#F2ECD9"/>
<path d="M239.62 383.239L237.561 386.159L246.517 392.476L248.577 389.555L239.62 383.239Z" fill="#F2ECD9"/>
<path d="M296.412 349.371L276.879 349.808L276.959 353.381L296.492 352.945L296.412 349.371Z" fill="#F2ECD9"/>
<path d="M259.456 350.258L237.067 350.759L237.147 354.332L259.536 353.831L259.456 350.258Z" fill="#F2ECD9"/>
<path d="M230.153 350.873L220.149 351.098L220.229 354.671L230.233 354.446L230.153 350.873Z" fill="#F2ECD9"/>
<path d="M322.688 278.367L316.307 280.312L317.349 283.73L323.73 281.785L322.688 278.367Z" fill="#F2ECD9"/>
<path d="M307.727 282.92L271.488 293.959L272.529 297.378L308.768 286.339L307.727 282.92Z" fill="#F2ECD9"/>
<path d="M248.838 300.789L231.289 306.137L232.33 309.556L249.88 304.208L248.838 300.789Z" fill="#F2ECD9"/>
<path d="M220.279 309.361L206.148 313.667L207.19 317.086L221.321 312.78L220.279 309.361Z" fill="#F2ECD9"/>
<path d="M408.201 160.982L406.701 164.226L412.757 167.026L414.257 163.782L408.201 160.982Z" fill="#F2ECD9"/>
<path d="M373.923 145.108L372.424 148.352L397.514 159.946L399.013 156.702L373.923 145.108Z" fill="#F2ECD9"/>
<path d="M368.491 201.59L365.357 203.308L371.543 214.59L374.677 212.872L368.491 201.59Z" fill="#F2ECD9"/>
<path d="M353.995 175.294L350.861 177.012L361.629 196.649L364.763 194.931L353.995 175.294Z" fill="#F2ECD9"/>
<path d="M338.11 145.829L334.976 147.547L343.568 163.215L346.701 161.497L338.11 145.829Z" fill="#F2ECD9"/>
<path d="M320.163 244.733L316.682 245.541L322.985 272.696L326.466 271.888L320.163 244.733Z" fill="#F2ECD9"/>
<path d="M308.347 192.838L304.866 193.646L312.893 228.227L316.374 227.419L308.347 192.838Z" fill="#F2ECD9"/>
<path d="M299.188 153.358L295.707 154.165L300.607 175.285L304.088 174.478L299.188 153.358Z" fill="#F2ECD9"/>
<path d="M24.9981 152.65L0.989746 163.742L2.48863 166.986L26.497 155.895L24.9981 152.65Z" fill="#F2ECD9"/>
<path d="M41.4736 145.128L31.5242 149.726L33.0234 152.97L42.9728 148.373L41.4736 145.128Z" fill="#F2ECD9"/>
<path d="M49.955 195.667L40.5713 212.803L43.7059 214.52L53.0897 197.384L49.955 195.667Z" fill="#F2ECD9"/>
<path d="M69.148 160.665L58.391 180.308L61.5256 182.025L72.2826 162.381L69.148 160.665Z" fill="#F2ECD9"/>
<path d="M77.0332 145.851L72.2269 154.628L75.3616 156.344L80.1679 147.567L77.0332 145.851Z" fill="#F2ECD9"/>
<path d="M89.9945 265.412L88.4861 271.911L91.9674 272.719L93.4758 266.22L89.9945 265.412Z" fill="#F2ECD9"/>
<path d="M100.625 219.915L92.0598 256.817L95.5411 257.625L104.107 220.723L100.625 219.915Z" fill="#F2ECD9"/>
<path d="M110.162 179.095L106.025 196.968L109.507 197.773L113.644 179.901L110.162 179.095Z" fill="#F2ECD9"/>
<path d="M116.04 153.137L112.709 167.527L116.19 168.333L119.522 153.942L116.04 153.137Z" fill="#F2ECD9"/>
<path d="M11.4544 143.59L8.53418 145.65L12.3802 151.101L15.3004 149.041L11.4544 143.59Z" fill="#F2ECD9"/>
<path d="M21.1703 157.433L18.2501 159.494L34.1834 182.077L37.1037 180.016L21.1703 157.433Z" fill="#F2ECD9"/>
<path d="M67.3278 122.918L67.0376 135.78L70.6104 135.86L70.9006 122.998L67.3278 122.918Z" fill="#F2ECD9"/>
<path d="M66.9194 143.275L66.4143 165.665L69.9871 165.746L70.4922 143.356L66.9194 143.275Z" fill="#F2ECD9"/>
<path d="M65.9225 181.219L65.5194 199.083L69.0922 199.164L69.4953 181.3L65.9225 181.219Z" fill="#F2ECD9"/>
<path d="M138.539 95.6704L130.407 122.334L133.826 123.377L141.957 96.7129L138.539 95.6704Z" fill="#F2ECD9"/>
<path d="M125.154 139.178L114.799 173.134L118.217 174.176L128.573 140.22L125.154 139.178Z" fill="#F2ECD9"/>
<path d="M109.296 191.442L102.971 212.18L106.389 213.223L112.714 192.485L109.296 191.442Z" fill="#F2ECD9"/>
<path d="M340.493 346.128L340.169 349.688L366.508 352.084L366.832 348.524L340.493 346.128Z" fill="#F2ECD9"/>
<path d="M322.621 344.596L322.298 348.156L333.213 349.148L333.536 345.589L322.621 344.596Z" fill="#F2ECD9"/>
<path d="M354.811 286.878L338.114 297.022L339.97 300.076L356.666 289.932L354.811 286.878Z" fill="#F2ECD9"/>
<path d="M323.312 305.872L304.172 317.5L306.027 320.554L325.167 308.926L323.312 305.872Z" fill="#F2ECD9"/>
<path d="M298.342 321.214L289.79 326.411L291.646 329.465L300.197 324.268L298.342 321.214Z" fill="#F2ECD9"/>
<path d="M341.926 212.259L337.373 217.134L339.984 219.574L344.538 214.698L341.926 212.259Z" fill="#F2ECD9"/>
<path d="M331.525 223.539L305.662 251.22L308.273 253.66L334.136 225.979L331.525 223.539Z" fill="#F2ECD9"/>
<path d="M289.329 268.521L276.805 281.927L279.416 284.366L291.941 270.961L289.329 268.521Z" fill="#F2ECD9"/>
<path d="M268.977 290.454L258.892 301.248L261.503 303.688L271.588 292.894L268.977 290.454Z" fill="#F2ECD9"/>
<path d="M364.168 67.1782L357.524 67.7811L357.847 71.3404L364.491 70.7374L364.168 67.1782Z" fill="#F2ECD9"/>
<path d="M347.445 68.6063L319.921 71.1113L320.245 74.6706L347.769 72.1656L347.445 68.6063Z" fill="#F2ECD9"/>
<path d="M343.399 122.65L341.544 125.705L352.542 132.382L354.397 129.327L343.399 122.65Z" fill="#F2ECD9"/>
<path d="M317.686 107.176L315.831 110.231L334.975 121.855L336.83 118.8L317.686 107.176Z" fill="#F2ECD9"/>
<path d="M289.186 89.8972L287.331 92.9521L302.606 102.226L304.461 99.1714L289.186 89.8972Z" fill="#F2ECD9"/>
<path d="M323.092 184.287L320.481 186.727L339.515 207.093L342.126 204.653L323.092 184.287Z" fill="#F2ECD9"/>
<path d="M286.957 145.369L284.346 147.81L308.585 173.746L311.196 171.306L286.957 145.369Z" fill="#F2ECD9"/>
<path d="M259.212 115.632L256.6 118.073L271.405 133.913L274.016 131.473L259.212 115.632Z" fill="#F2ECD9"/>
<path d="M21.4818 252.075L6.23523 273.685L9.15545 275.745L24.402 254.135L21.4818 252.075Z" fill="#F2ECD9"/>
<path d="M31.9662 237.343L25.6489 246.299L28.5695 248.359L34.8868 239.403L31.9662 237.343Z" fill="#F2ECD9"/>
<path d="M67.966 276.857L64.3932 276.938L64.8336 296.469L68.4064 296.388L67.966 276.857Z" fill="#F2ECD9"/>
<path d="M67.2182 237.067L63.6454 237.147L64.1502 259.537L67.723 259.456L67.2182 237.067Z" fill="#F2ECD9"/>
<path d="M66.8817 220.149L63.3088 220.229L63.5344 230.233L67.1072 230.153L66.8817 220.149Z" fill="#F2ECD9"/>
<path d="M137.7 316.297L134.282 317.338L136.225 323.72L139.644 322.679L137.7 316.297Z" fill="#F2ECD9"/>
<path d="M124.065 271.495L120.646 272.536L131.677 308.779L135.096 307.738L124.065 271.495Z" fill="#F2ECD9"/>
<path d="M111.868 231.265L108.45 232.309L113.805 249.857L117.224 248.813L111.868 231.265Z" fill="#F2ECD9"/>
<path d="M104.112 206.194L100.694 207.238L105.006 221.367L108.424 220.324L104.112 206.194Z" fill="#F2ECD9"/>
<path d="M5.1671 251.125L3.66821 254.37L9.72436 257.168L11.2232 253.923L5.1671 251.125Z" fill="#F2ECD9"/>
<path d="M20.5229 258.001L19.024 261.245L44.1139 272.837L45.6128 269.592L20.5229 258.001Z" fill="#F2ECD9"/>
<path d="M46.2848 203.501L43.1501 205.218L49.3297 216.503L52.4643 214.786L46.2848 203.501Z" fill="#F2ECD9"/>
<path d="M56.1683 221.454L53.0337 223.171L63.7906 242.814L66.9253 241.098L56.1683 221.454Z" fill="#F2ECD9"/>
<path d="M74.328 254.538L71.1934 256.254L79.776 271.927L82.9107 270.211L74.328 254.538Z" fill="#F2ECD9"/>
<path d="M94.7903 145.349L91.3086 146.155L97.5975 173.312L101.079 172.506L94.7903 145.349Z" fill="#F2ECD9"/>
<path d="M105.118 189.757L101.636 190.564L109.645 225.148L113.126 224.342L105.118 189.757Z" fill="#F2ECD9"/>
<path d="M117.399 242.711L113.917 243.517L118.811 264.639L122.293 263.833L117.399 242.711Z" fill="#F2ECD9"/>
<path d="M415.539 250.998L391.53 262.093L393.03 265.337L417.038 254.243L415.539 250.998Z" fill="#F2ECD9"/>
<path d="M384.971 265.025L375.022 269.623L376.522 272.867L386.47 268.269L384.971 265.025Z" fill="#F2ECD9"/>
<path d="M374.195 203.622L364.807 220.756L367.941 222.473L377.329 205.339L374.195 203.622Z" fill="#F2ECD9"/>
<path d="M356.608 235.706L345.846 255.348L348.98 257.065L359.742 237.423L356.608 235.706Z" fill="#F2ECD9"/>
<path d="M342.457 261.506L337.648 270.282L340.783 271.999L345.591 263.223L342.457 261.506Z" fill="#F2ECD9"/>
<path d="M325.798 145.154L324.293 151.653L327.774 152.459L329.28 145.96L325.798 145.154Z" fill="#F2ECD9"/>
<path d="M322.245 160.251L313.687 197.157L317.168 197.964L325.726 161.058L322.245 160.251Z" fill="#F2ECD9"/>
<path d="M308.515 220.16L304.371 238.033L307.853 238.84L311.997 220.968L308.515 220.16Z" fill="#F2ECD9"/>
<path d="M301.657 249.317L298.32 263.708L301.802 264.515L305.139 250.124L301.657 249.317Z" fill="#F2ECD9"/>
<path d="M272.352 8.49936L266.9 12.344L268.96 15.2649L274.412 11.4203L272.352 8.49936Z" fill="#F2ECD9"/>
<path d="M258.688 18.1036L236.105 34.0342L238.165 36.9544L260.748 21.0238L258.688 18.1036Z" fill="#F2ECD9"/>
<path d="M282.194 66.9982L282.115 70.5714L294.978 70.855L295.057 67.2818L282.194 66.9982Z" fill="#F2ECD9"/>
<path d="M252.308 66.3789L252.229 69.952L274.621 70.4457L274.7 66.8725L252.308 66.3789Z" fill="#F2ECD9"/>
<path d="M218.884 65.7249L218.805 69.2981L236.671 69.6931L236.75 66.12L218.884 65.7249Z" fill="#F2ECD9"/>
<path d="M295.639 130.36L294.598 133.779L321.267 141.896L322.308 138.477L295.639 130.36Z" fill="#F2ECD9"/>
<path d="M244.769 115.004L243.728 118.423L277.688 128.764L278.729 125.345L244.769 115.004Z" fill="#F2ECD9"/>
<path d="M205.727 103.185L204.686 106.604L225.426 112.92L226.467 109.501L205.727 103.185Z" fill="#F2ECD9"/>
<path d="M68.2854 340.127L65.8879 366.465L69.4472 366.789L71.8446 340.451L68.2854 340.127Z" fill="#F2ECD9"/>
<path d="M69.8407 322.02L68.8475 332.935L72.4068 333.259L73.3999 322.344L69.8407 322.02Z" fill="#F2ECD9"/>
<path d="M120.963 338.115L117.909 339.971L128.057 356.666L131.111 354.81L120.963 338.115Z" fill="#F2ECD9"/>
<path d="M100.294 304.283L97.24 306.139L108.873 325.277L111.927 323.42L100.294 304.283Z" fill="#F2ECD9"/>
<path d="M91.5811 289.752L88.5272 291.608L93.7248 300.159L96.7787 298.303L91.5811 289.752Z" fill="#F2ECD9"/>
<path d="M200.72 337.489L198.28 340.1L203.154 344.655L205.594 342.044L200.72 337.489Z" fill="#F2ECD9"/>
<path d="M166.764 305.643L164.323 308.254L191.997 334.124L194.437 331.514L166.764 305.643Z" fill="#F2ECD9"/>
<path d="M135.908 276.945L133.469 279.557L146.88 292.076L149.319 289.464L135.908 276.945Z" fill="#F2ECD9"/>
<path d="M116.748 258.858L114.309 261.47L125.107 271.551L127.546 268.938L116.748 258.858Z" fill="#F2ECD9"/>
<path d="M60.1542 346.662L53.5103 347.267L53.8344 350.826L60.4783 350.221L60.1542 346.662Z" fill="#F2ECD9"/>
<path d="M97.744 343.097L70.2192 345.604L70.5434 349.163L98.0681 346.656L97.744 343.097Z" fill="#F2ECD9"/>
<path d="M65.4864 285.57L63.6301 288.624L74.6241 295.306L76.4804 292.252L65.4864 285.57Z" fill="#F2ECD9"/>
<path d="M82.9149 296.294L81.0586 299.348L100.196 310.98L102.053 307.926L82.9149 296.294Z" fill="#F2ECD9"/>
<path d="M115.295 315.927L113.438 318.981L128.708 328.262L130.564 325.208L115.295 315.927Z" fill="#F2ECD9"/>
<path d="M78.171 210.881L75.5588 213.321L94.5844 233.695L97.1965 231.256L78.171 210.881Z" fill="#F2ECD9"/>
<path d="M109.44 244.236L106.828 246.675L131.057 272.623L133.67 270.184L109.44 244.236Z" fill="#F2ECD9"/>
<path d="M146.621 284.071L144.008 286.51L158.806 302.357L161.418 299.918L146.621 284.071Z" fill="#F2ECD9"/>
<path d="M408.661 142.071L393.417 163.683L396.337 165.743L411.581 144.131L408.661 142.071Z" fill="#F2ECD9"/>
<path d="M389.58 169.396L383.264 178.352L386.184 180.412L392.501 171.455L389.58 169.396Z" fill="#F2ECD9"/>
<path d="M352.945 121.529L349.372 121.609L349.809 141.142L353.382 141.062L352.945 121.529Z" fill="#F2ECD9"/>
<path d="M353.867 158.459L350.294 158.539L350.795 180.93L354.368 180.851L353.867 158.459Z" fill="#F2ECD9"/>
<path d="M354.447 187.747L350.874 187.827L351.099 197.831L354.672 197.751L354.447 187.747Z" fill="#F2ECD9"/>
<path d="M281.779 94.2473L278.361 95.2894L280.306 101.67L283.725 100.628L281.779 94.2473Z" fill="#F2ECD9"/>
<path d="M286.332 109.236L282.913 110.277L293.952 146.516L297.371 145.475L286.332 109.236Z" fill="#F2ECD9"/>
<path d="M304.166 167.899L300.747 168.941L306.095 186.491L309.514 185.449L304.166 167.899Z" fill="#F2ECD9"/>
<path d="M312.807 196.686L309.388 197.728L313.694 211.859L317.113 210.817L312.807 196.686Z" fill="#F2ECD9"/>
<path d="M163.603 3.63334L160.804 9.68884L164.048 11.1884L166.847 5.13295L163.603 3.63334Z" fill="#F2ECD9"/>
<path d="M156.745 18.988L145.151 44.0778L148.395 45.577L159.99 20.4872L156.745 18.988Z" fill="#F2ECD9"/>
<path d="M212.774 43.1321L201.493 49.3181L203.211 52.4517L214.492 46.2657L212.774 43.1321Z" fill="#F2ECD9"/>
<path d="M194.837 53.0091L175.197 63.7772L176.915 66.9112L196.555 56.143L194.837 53.0091Z" fill="#F2ECD9"/>
<path d="M161.521 71.2795L145.853 79.8711L147.571 83.0047L163.239 74.4131L161.521 71.2795Z" fill="#F2ECD9"/>
<path d="M271.841 91.2959L244.687 97.5988L245.495 101.08L272.649 94.7772L271.841 91.2959Z" fill="#F2ECD9"/>
<path d="M227.425 101.634L192.844 109.657L193.651 113.139L228.232 105.116L227.425 101.634Z" fill="#F2ECD9"/>
<path d="M174.469 113.904L153.349 118.804L154.157 122.286L175.277 117.385L174.469 113.904Z" fill="#F2ECD9"/>
<path d="M155.896 391.508L152.652 393.007L163.743 417.015L166.988 415.517L155.896 391.508Z" fill="#F2ECD9"/>
<path d="M148.404 375.038L145.16 376.537L149.758 386.486L153.002 384.987L148.404 375.038Z" fill="#F2ECD9"/>
<path d="M197.235 364.776L195.518 367.91L212.654 377.296L214.371 374.161L197.235 364.776Z" fill="#F2ECD9"/>
<path d="M162.63 345.8L160.913 348.934L180.557 359.691L182.274 356.557L162.63 345.8Z" fill="#F2ECD9"/>
<path d="M147.607 337.8L145.891 340.935L154.668 345.741L156.384 342.606L147.607 337.8Z" fill="#F2ECD9"/>
<path d="M266.255 324.485L265.447 327.966L271.945 329.475L272.753 325.993L266.255 324.485Z" fill="#F2ECD9"/>
<path d="M220.758 313.885L219.95 317.366L256.852 325.932L257.66 322.45L220.758 313.885Z" fill="#F2ECD9"/>
<path d="M179.919 304.334L179.113 307.815L196.986 311.952L197.792 308.471L179.919 304.334Z" fill="#F2ECD9"/>
<path d="M154.212 298.485L153.406 301.967L167.799 305.297L168.604 301.815L154.212 298.485Z" fill="#F2ECD9"/>
<path d="M148.934 402.492L143.483 406.338L145.543 409.258L150.994 405.412L148.934 402.492Z" fill="#F2ECD9"/>
<path d="M179.874 380.689L157.291 396.619L159.351 399.539L181.934 383.609L179.874 380.689Z" fill="#F2ECD9"/>
<path d="M122.779 347.063L122.699 350.635L135.561 350.926L135.641 347.353L122.779 347.063Z" fill="#F2ECD9"/>
<path d="M143.375 347.476L143.294 351.049L165.684 351.554L165.765 347.981L143.375 347.476Z" fill="#F2ECD9"/>
<path d="M181.319 348.473L181.238 352.046L199.102 352.449L199.183 348.876L181.319 348.473Z" fill="#F2ECD9"/>
<path d="M96.7422 276.028L95.6997 279.446L122.363 287.578L123.406 284.159L96.7422 276.028Z" fill="#F2ECD9"/>
<path d="M140.477 289.482L139.435 292.9L173.391 303.256L174.433 299.837L140.477 289.482Z" fill="#F2ECD9"/>
<path d="M192.524 305.269L191.481 308.688L212.219 315.012L213.262 311.594L192.524 305.269Z" fill="#F2ECD9"/>
<path d="M348.567 51.1391L346.171 77.4774L349.73 77.8012L352.126 51.4629L348.567 51.1391Z" fill="#F2ECD9"/>
<path d="M345.629 84.4345L344.637 95.3495L348.196 95.673L349.188 84.7581L345.629 84.4345Z" fill="#F2ECD9"/>
<path d="M289.937 61.3161L286.883 63.1716L297.027 79.8681L300.081 78.0126L289.937 61.3161Z" fill="#F2ECD9"/>
<path d="M308.93 92.8191L305.876 94.6747L317.504 113.815L320.559 111.959L308.93 92.8191Z" fill="#F2ECD9"/>
<path d="M324.296 117.805L321.241 119.661L326.438 128.213L329.492 126.357L324.296 117.805Z" fill="#F2ECD9"/>
<path d="M214.534 73.3035L212.095 75.9153L216.97 80.4691L219.41 77.8573L214.534 73.3035Z" fill="#F2ECD9"/>
<path d="M226.01 83.8518L223.57 86.4633L251.251 112.326L253.691 109.715L226.01 83.8518Z" fill="#F2ECD9"/>
<path d="M270.813 125.889L268.373 128.5L281.778 141.025L284.218 138.414L270.813 125.889Z" fill="#F2ECD9"/>
<path d="M292.923 146.406L290.483 149.018L301.277 159.102L303.716 156.491L292.923 146.406Z" fill="#F2ECD9"/>
<path d="M70.7406 53.5062L67.1814 53.8292L67.7843 60.4731L71.3436 60.1501L70.7406 53.5062Z" fill="#F2ECD9"/>
<path d="M72.1686 70.2372L68.6094 70.5612L71.1144 98.0859L74.6736 97.7619L72.1686 70.2372Z" fill="#F2ECD9"/>
<path d="M129.354 63.6006L122.677 74.5984L125.732 76.4532L132.409 65.4554L129.354 63.6006Z" fill="#F2ECD9"/>
<path d="M118.642 81.0386L107.018 100.183L110.073 102.038L121.697 82.8935L118.642 81.0386Z" fill="#F2ECD9"/>
<path d="M98.998 113.417L89.7238 128.691L92.7787 130.546L102.053 115.271L98.998 113.417Z" fill="#F2ECD9"/>
<path d="M204.675 75.5402L184.309 94.5741L186.749 97.1852L207.115 78.1513L204.675 75.5402Z" fill="#F2ECD9"/>
<path d="M171.317 106.807L145.38 131.047L147.82 133.658L173.757 109.418L171.317 106.807Z" fill="#F2ECD9"/>
<path d="M131.485 143.979L115.644 158.783L118.084 161.394L133.925 146.59L131.485 143.979Z" fill="#F2ECD9"/>
<path d="M254.126 393.57L252.066 396.49L273.676 411.734L275.736 408.814L254.126 393.57Z" fill="#F2ECD9"/>
<path d="M239.648 383.228L237.588 386.148L246.544 392.466L248.604 389.545L239.648 383.228Z" fill="#F2ECD9"/>
<path d="M296.383 349.336L276.852 349.777L276.933 353.349L296.464 352.909L296.383 349.336Z" fill="#F2ECD9"/>
<path d="M259.457 350.258L237.067 350.763L237.148 354.335L259.538 353.831L259.457 350.258Z" fill="#F2ECD9"/>
<path d="M230.153 350.874L220.149 351.099L220.23 354.672L230.234 354.447L230.153 350.874Z" fill="#F2ECD9"/>
<path d="M322.707 278.337L316.325 280.28L317.366 283.699L323.748 281.756L322.707 278.337Z" fill="#F2ECD9"/>
<path d="M307.735 282.881L271.496 293.917L272.537 297.335L308.776 286.3L307.735 282.881Z" fill="#F2ECD9"/>
<path d="M248.817 300.81L231.269 306.163L232.312 309.581L249.86 304.228L248.817 300.81Z" fill="#F2ECD9"/>
<path d="M220.284 309.363L206.155 313.675L207.198 317.093L221.328 312.781L220.284 309.363Z" fill="#F2ECD9"/>
<path d="M253.745 406.684L250.947 412.74L254.192 414.239L256.989 408.182L253.745 406.684Z" fill="#F2ECD9"/>
<path d="M269.627 372.366L258.036 397.456L261.28 398.954L272.871 373.865L269.627 372.366Z" fill="#F2ECD9"/>
<path d="M214.68 365.321L203.395 371.5L205.112 374.635L216.396 368.456L214.68 365.321Z" fill="#F2ECD9"/>
<path d="M241.001 350.852L221.357 361.609L223.074 364.744L242.718 353.987L241.001 350.852Z" fill="#F2ECD9"/>
<path d="M270.462 334.974L254.789 343.559L256.505 346.693L272.179 338.109L270.462 334.974Z" fill="#F2ECD9"/>
<path d="M172.465 316.679L145.308 322.971L146.114 326.453L173.271 320.161L172.465 316.679Z" fill="#F2ECD9"/>
<path d="M224.344 304.863L189.759 312.872L190.566 316.354L225.15 308.345L224.344 304.863Z" fill="#F2ECD9"/>
<path d="M263.838 295.712L242.716 300.604L243.522 304.085L264.644 299.194L263.838 295.712Z" fill="#F2ECD9"/>
<path d="M254.266 0.974511L251.021 2.47375L262.116 26.4821L265.36 24.9829L254.266 0.974511Z" fill="#F2ECD9"/>
<path d="M268.264 31.5142L265.02 33.0134L269.617 42.9617L272.861 41.4625L268.264 31.5142Z" fill="#F2ECD9"/>
<path d="M205.168 40.5294L203.451 43.6637L220.585 53.0513L222.302 49.917L205.168 40.5294Z" fill="#F2ECD9"/>
<path d="M237.668 58.3545L235.951 61.4888L255.592 72.2502L257.31 69.1159L237.668 58.3545Z" fill="#F2ECD9"/>
<path d="M263.247 72.4133L261.53 75.5476L270.306 80.3559L272.023 77.2216L263.247 72.4133Z" fill="#F2ECD9"/>
<path d="M146.007 88.6864L145.2 92.1681L151.699 93.6738L152.506 90.1921L146.007 88.6864Z" fill="#F2ECD9"/>
<path d="M161.115 92.2518L160.308 95.7335L197.214 104.291L198.021 100.81L161.115 92.2518Z" fill="#F2ECD9"/>
<path d="M221.024 105.986L220.217 109.467L238.089 113.612L238.897 110.13L221.024 105.986Z" fill="#F2ECD9"/>
<path d="M250.411 112.898L249.604 116.38L263.995 119.717L264.802 116.235L250.411 112.898Z" fill="#F2ECD9"/>
</svg>
